<?xml version="1.0" encoding="UTF-8" standalone="no"?>
<!-- Created with Inkscape (http://www.inkscape.org/) -->

<svg
   width="64mm"
   height="64mm"
   viewBox="0 0 64 64"
   version="1.1"
   id="svg1"
   xml:space="preserve"
   inkscape:version="1.3 (0e150ed6c4, 2023-07-21)"
   sodipodi:docname="mollyfish-logo.svg"
   xmlns:inkscape="http://www.inkscape.org/namespaces/inkscape"
   xmlns:sodipodi="http://sodipodi.sourceforge.net/DTD/sodipodi-0.dtd"
   xmlns:xlink="http://www.w3.org/1999/xlink"
   xmlns="http://www.w3.org/2000/svg"
   xmlns:svg="http://www.w3.org/2000/svg"><sodipodi:namedview
     id="namedview1"
     pagecolor="#ffffff"
     bordercolor="#000000"
     borderopacity="0.25"
     inkscape:showpageshadow="2"
     inkscape:pageopacity="0.0"
     inkscape:pagecheckerboard="0"
     inkscape:deskcolor="#4d4d4d"
     inkscape:document-units="px"
     inkscape:zoom="2.8284271"
     inkscape:cx="96.166522"
     inkscape:cy="116.67262"
     inkscape:window-width="948"
     inkscape:window-height="989"
     inkscape:window-x="26"
     inkscape:window-y="23"
     inkscape:window-maximized="0"
     inkscape:current-layer="layer1"
     showguides="false" /><defs
     id="defs1"><linearGradient
       id="linearGradient9"
       inkscape:collect="always"><stop
         style="stop-color:#ff7043;stop-opacity:1;"
         offset="0"
         id="stop9" /><stop
         style="stop-color:#d84315;stop-opacity:1;"
         offset="1"
         id="stop10" /></linearGradient><linearGradient
       id="linearGradient7"
       inkscape:collect="always"><stop
         style="stop-color:#ff7043;stop-opacity:1;"
         offset="0"
         id="stop7" /><stop
         style="stop-color:#d84315;stop-opacity:1;"
         offset="0.74906754"
         id="stop8" /></linearGradient><inkscape:path-effect
       effect="fillet_chamfer"
       id="path-effect5"
       is_visible="true"
       lpeversion="1"
       nodesatellites_param="F,0,0,1,0,0,0,1 @ F,0,0,1,0,0,0,1 @ F,0,0,1,0,0,0,1 @ F,0,0,1,0,0,0,1 @ F,0,0,1,0,0,0,1 @ F,0,0,1,0,0,0,1 @ F,0,0,1,0,0,0,1 @ F,0,0,1,0,0,0,1 @ F,0,0,1,0,0,0,1 @ F,0,0,1,0,0,0,1 @ F,0,0,1,0,0,0,1 @ F,0,0,1,0,0,0,1 @ F,0,0,1,0,0,0,1 @ F,0,0,1,0,0,0,1 @ F,0,0,1,0,0,0,1 @ F,0,0,1,0,0,0,1 @ F,0,0,1,0,0,0,1 @ F,0,0,1,0,0,0,1 @ F,0,0,1,0,0,0,1 @ F,0,0,1,0,0,0,1 @ F,0,0,1,0,0,0,1 @ F,0,0,1,0,0,0,1 @ F,0,0,1,0,0,0,1 @ F,0,0,1,0,0,0,1 @ F,0,0,1,0,0,0,1 @ F,0,0,1,0,0,0,1 @ F,0,0,1,0,0,0,1 @ F,0,0,1,0,0,0,1 @ F,0,0,1,0,0,0,1 @ F,0,0,1,0,0,0,1 @ F,0,0,1,0,0,0,1 @ F,0,0,1,0,0,0,1 @ F,0,0,1,0,0,0,1 @ F,0,0,1,0,0,0,1 @ F,0,0,1,0,0,0,1 @ F,0,0,1,0,0,0,1 @ F,0,0,1,0,0,0,1 @ F,0,0,1,0,0,0,1 @ F,0,0,1,0,0,0,1 @ F,0,0,1,0,0,0,1 @ F,0,0,1,0,0,0,1 @ F,0,0,1,0,0,0,1 @ F,0,0,1,0,0,0,1 @ F,0,0,1,0,0,0,1 @ F,0,0,1,0,0,0,1 @ F,0,0,1,0,0,0,1 @ F,0,0,1,0,0,0,1 @ F,0,0,1,0,0,0,1 @ F,0,0,1,0,0,0,1 @ F,0,0,1,0,0,0,1 @ F,0,0,1,0,0,0,1 @ F,0,0,1,0,0,0,1 @ F,0,0,1,0,0,0,1 @ F,0,0,1,0,0,0,1 @ F,0,0,1,0,0,0,1 @ F,0,0,1,0,0,0,1 @ F,0,0,1,0,0,0,1 @ F,0,0,1,0,0,0,1 @ F,0,0,1,0,0,0,1 @ F,0,0,1,0,0,0,1 @ F,0,0,1,0,0,0,1 @ F,0,0,1,0,0,0,1 @ F,0,0,1,0,0,0,1 @ F,0,0,1,0,0,0,1 @ F,0,0,1,0,0,0,1 @ F,0,0,1,0,0,0,1 @ F,0,0,1,0,0,0,1 @ F,0,0,1,0,0,0,1 @ F,0,0,1,0,0,0,1 @ F,0,0,1,0,0,0,1 @ F,0,0,1,0,0,0,1 @ F,0,0,1,0,0,0,1 @ F,0,0,1,0,0,0,1 @ F,0,0,1,0,0,0,1 @ F,0,0,1,0,0,0,1 @ F,0,0,1,0,0,0,1 @ F,0,0,1,0,0,0,1"
       radius="0"
       unit="px"
       method="auto"
       mode="F"
       chamfer_steps="1"
       flexible="false"
       use_knot_distance="true"
       apply_no_radius="true"
       apply_with_radius="true"
       only_selected="false"
       hide_knots="false" /><linearGradient
       inkscape:collect="always"
       xlink:href="#linearGradient7"
       id="linearGradient8"
       x1="4.8932798"
       y1="30.816087"
       x2="58.421277"
       y2="30.816087"
       gradientUnits="userSpaceOnUse" /><linearGradient
       inkscape:collect="always"
       xlink:href="#linearGradient9"
       id="linearGradient10"
       x1="6.2361786"
       y1="55.130522"
       x2="29.428103"
       y2="55.130522"
       gradientUnits="userSpaceOnUse" /></defs><g
     inkscape:label="Layer 1"
     inkscape:groupmode="layer"
     id="layer1"><g
       id="g10"><path
         d="m 31.657537,7.6689195 c -1.274554,-3.4e-5 -2.547483,0.05722 -3.80907,0.171326 -1.261605,0.114228 -2.50863,0.285017 -3.731555,0.511064 -1.222772,0.225959 -2.418333,0.506583 -3.577559,0.839731 -1.159394,0.333125 -2.279489,0.717937 -3.351734,1.1514995 -1.072249,0.433567 -2.093908,0.914778 -3.057177,1.439955 -0.963155,0.52506 -1.865482,1.092735 -2.700094,1.698692 -0.834562,0.606109 -1.5992512,1.248955 -2.2882322,1.92363 -0.689155,0.674659 -1.300838,1.379434 -1.830379,2.108941 -0.529371,0.729432 -0.975267,1.481722 -1.334286,2.251131 -0.359111,0.76946 -0.630413,1.554079 -0.811837,2.347865 -0.181363,0.793839 -0.272373,1.594817 -0.272334,2.396817 -3.9e-5,0.802001 0.09097,1.602977 0.272334,2.396816 0.181424,0.793786 0.452727,1.578406 0.811837,2.347866 0.359019,0.769408 0.804915,1.5217 1.334286,2.251131 0.529541,0.729508 1.141224,1.434284 1.830379,2.108943 0.688981,0.674673 1.4536712,1.317519 2.2882322,1.92363 0.834612,0.605957 1.736939,1.173632 2.700094,1.698692 0.963269,0.525177 1.984928,1.006386 3.057177,1.439953 1.072245,0.43356 2.19234,0.818373 3.351734,1.151499 1.159226,0.333147 2.354787,0.613773 3.577559,0.83973 1.222925,0.226049 2.46995,0.396837 3.731555,0.511064 1.115885,0.09501 2.240187,0.14562 3.366203,0.151513 L 37.431344,27.831782 H 17.91264 c -0.294018,0 -0.57591,-0.02492 -0.845427,-0.07401 -0.269516,-0.0491 -0.526514,-0.12267 -0.771529,-0.220859 -0.245015,-0.09819 -0.477635,-0.221011 -0.698148,-0.368292 -0.220514,-0.147285 -0.428757,-0.318771 -0.624768,-0.515143 -0.196012,-0.196374 -0.367689,-0.404945 -0.514698,-0.625866 -0.0735,-0.11046 -0.140801,-0.224306 -0.202055,-0.340904 -0.06125,-0.116595 -0.116361,-0.236235 -0.165364,-0.358968 -0.049,-0.12273 -0.09192,-0.248746 -0.128674,-0.377617 -0.03675,-0.128865 -0.06748,-0.260675 -0.09198,-0.395681 -0.049,-0.270013 -0.07338,-0.552163 -0.07338,-0.846723 0,-0.282288 0.02438,-0.552271 0.07338,-0.810012 0.0245,-0.128865 0.05523,-0.254883 0.09198,-0.377616 0.03675,-0.12273 0.07967,-0.242373 0.128674,-0.358969 0.049,-0.116595 0.104111,-0.22986 0.165364,-0.34032 0.06125,-0.11046 0.128551,-0.217934 0.202055,-0.322257 0.147009,-0.208647 0.318686,-0.405051 0.514698,-0.589152 0.196011,-0.196373 0.404254,-0.368447 0.624768,-0.515726 0.220513,-0.147285 0.453133,-0.269523 0.698148,-0.367709 0.245015,-0.09819 0.502013,-0.17235 0.771529,-0.221442 0.269517,-0.04909 0.551409,-0.07342 0.845427,-0.07342 h 25.579833 c 0.318519,0 0.626377,0.02592 0.923458,0.07809 0.29708,0.05217 0.58322,0.130515 0.858862,0.234844 0.275642,0.104325 0.540581,0.234535 0.794784,0.39102 0.254202,0.156484 0.497423,0.33913 0.730188,0.547777 0.122507,0.09819 0.237487,0.200664 0.344681,0.306522 0.107194,0.105855 0.20681,0.215138 0.29869,0.328667 0.09188,0.113535 0.176131,0.230776 0.252698,0.351975 0.07657,0.1212 0.145452,0.246417 0.206706,0.375286 0.06125,0.128865 0.114773,0.261473 0.160713,0.398013 0.04594,0.136545 0.0841,0.27711 0.114722,0.421322 0.03063,0.14421 0.05393,0.292167 0.06925,0.444049 0.01531,0.151883 0.02274,0.307806 0.02274,0.46736 0,0.159552 -0.009,0.32047 -0.02739,0.483091 -0.01838,0.162623 -0.04593,0.326727 -0.08268,0.492417 -0.03675,0.16569 -0.08285,0.332982 -0.137976,0.501741 -0.05513,0.168758 -0.119249,0.339237 -0.192753,0.511064 l -15.31365,27.89892 c 0.463852,-0.09984 4.731271,-3.045378 5.791615,-4.159048 8.243509,-7.722248 10.489162,-10.15272 12.807487,-12.717462 1.169812,-1.329147 2.368842,-2.797739 3.057823,-3.472412 0.689155,-0.674659 1.300838,-1.379435 1.830379,-2.108943 0.529371,-0.729431 0.975267,-1.481723 1.334286,-2.251131 0.35911,-0.76946 0.630413,-1.55408 0.811836,-2.347866 0.181364,-0.793839 0.272374,-1.594815 0.272335,-2.396816 8.5e-5,-0.284514 -0.01129,-0.568983 -0.03411,-0.853134 -0.02302,-0.284111 -0.05748,-0.567801 -0.103349,-0.850808 -0.04565,-0.28291 -0.102689,-0.565047 -0.171049,-0.846141 -0.06847,-0.281136 -0.148251,-0.561136 -0.239262,-0.839731 -0.09096,-0.278775 -0.193144,-0.556055 -0.306441,-0.831572 -0.113348,-0.275242 -0.237756,-0.548636 -0.373104,-0.819917 -0.135376,-0.271515 -0.281667,-0.540828 -0.438733,-0.80768 -0.156953,-0.26661 -0.324611,-0.530677 -0.502812,-0.791946 -0.178346,-0.261511 -0.367198,-0.520138 -0.566373,-0.775629 -0.199102,-0.255429 -0.408459,-0.507642 -0.627869,-0.756397 -0.219362,-0.248757 -0.448707,-0.493975 -0.687813,-0.735421 -0.239141,-0.241296 -0.487957,-0.478742 -0.746208,-0.71211 -0.25824,-0.233439 -0.525838,-0.462725 -0.802535,-0.687635 -0.276674,-0.224989 -0.562364,-0.44553 -0.856795,-0.661411 -0.294456,-0.215748 -0.597549,-0.426768 -0.908989,-0.632858 -0.311546,-0.206307 -0.631354,-0.407613 -0.959114,-0.60372 -0.327655,-0.195872 -0.663143,-0.38649 -1.00614,-0.571671 -0.343064,-0.18543 -0.693543,-0.365363 -1.051099,-0.539619 -0.357488,-0.173996 -0.721924,-0.342269 -1.092956,-0.504653 -0.371045,-0.162556 -0.748576,-0.31917 -1.132231,-0.46969 -0.383594,-0.150512 -0.773187,-0.2948855 -1.168404,-0.4329785 -0.395297,-0.138067 -0.79609,-0.269808 -1.201994,-0.395099 -0.405811,-0.125212 -0.816599,-0.243935 -1.231966,-0.356055 -0.41547,-0.112152 -0.83539,-0.217662 -1.259355,-0.316429 -0.423932,-0.09888 -0.851778,-0.19098 -1.283125,-0.276219 -0.431385,-0.085 -0.866124,-0.163116 -1.303797,-0.234263 -0.437623,-0.0713 -0.878048,-0.135621 -1.320849,-0.192887 -0.442837,-0.0574 -0.887914,-0.107723 -1.334803,-0.15093 -0.44686,-0.04308 -0.895383,-0.07903 -1.345137,-0.107807 -0.449678,-0.02874 -0.900441,-0.05031 -1.351855,-0.06468 -0.451462,-0.01439 -0.903432,-0.02158 -1.355473,-0.02156 z"
         style="fill:url(#linearGradient8);fill-opacity:1;stroke-width:0.149337"
         id="path6"
         sodipodi:nodetypes="ccccccccccccccccccscccccsssssssssssssssscsssssssscssssssssssscccccccccccccccccccccccccccccccscccccccc" /><text
         xml:space="preserve"
         style="font-style:normal;font-variant:normal;font-weight:bold;font-stretch:normal;font-size:45.5637px;font-family:Quicksand;-inkscape-font-specification:'Quicksand Bold';fill:url(#linearGradient10);fill-opacity:1;stroke-width:0.237311;stroke-dasharray:none"
         x="3.593483"
         y="58.297199"
         id="text7"
         transform="scale(1.0723936,0.93249345)"><tspan
           sodipodi:role="line"
           id="tspan7"
           style="fill:url(#linearGradient10);stroke-width:0.237311"
           x="3.593483"
           y="58.297199">…</tspan></text></g></g></svg>
