<svg xmlns="http://www.w3.org/2000/svg" version="1.1" xmlns:xlink="http://www.w3.org/1999/xlink" xmlns:svgjs="http://svgjs.dev/svgjs" width="3840" height="2160" preserveAspectRatio="none" viewBox="0 0 3840 2160"><g mask="url(&quot;#SvgjsMask6071&quot;)" fill="none"><rect width="3840" height="2160" x="0" y="0" fill="url(&quot;#SvgjsLinearGradient6072&quot;)"></rect><path d="M350 1584L-740 494" stroke-width="6" stroke="url(&quot;#SvgjsLinearGradient6073&quot;)" stroke-linecap="round" class="TopLeft"></path><path d="M288 1016L1725 2453" stroke-width="10" stroke="url(&quot;#SvgjsLinearGradient6074&quot;)" stroke-linecap="round" class="BottomRight"></path><path d="M3321 128L2238 -955" stroke-width="6" stroke="url(&quot;#SvgjsLinearGradient6073&quot;)" stroke-linecap="round" class="TopLeft"></path><path d="M2580 262L1068 -1250" stroke-width="6" stroke="url(&quot;#SvgjsLinearGradient6075&quot;)" stroke-linecap="round" class="TopLeft"></path><path d="M1230 379L-372 -1223" stroke-width="8" stroke="url(&quot;#SvgjsLinearGradient6076&quot;)" stroke-linecap="round" class="BottomRight"></path><path d="M2136 1048L1556 468" stroke-width="6" stroke="url(&quot;#SvgjsLinearGradient6074&quot;)" stroke-linecap="round" class="BottomRight"></path><path d="M2760 891L1448 -421" stroke-width="6" stroke="url(&quot;#SvgjsLinearGradient6075&quot;)" stroke-linecap="round" class="TopLeft"></path><path d="M2162 353L868 -941" stroke-width="6" stroke="url(&quot;#SvgjsLinearGradient6075&quot;)" stroke-linecap="round" class="TopLeft"></path><path d="M2652 1366L3550 2264" stroke-width="6" stroke="url(&quot;#SvgjsLinearGradient6073&quot;)" stroke-linecap="round" class="TopLeft"></path><path d="M3406 2129L5006 3729" stroke-width="6" stroke="url(&quot;#SvgjsLinearGradient6074&quot;)" stroke-linecap="round" class="BottomRight"></path><path d="M1467 454L25 -988" stroke-width="6" stroke="url(&quot;#SvgjsLinearGradient6075&quot;)" stroke-linecap="round" class="TopLeft"></path><path d="M1632 2076L3085 3529" stroke-width="8" stroke="url(&quot;#SvgjsLinearGradient6075&quot;)" stroke-linecap="round" class="TopLeft"></path><path d="M1766 559L980 -227" stroke-width="8" stroke="url(&quot;#SvgjsLinearGradient6074&quot;)" stroke-linecap="round" class="BottomRight"></path><path d="M3317 609L4432 1724" stroke-width="6" stroke="url(&quot;#SvgjsLinearGradient6076&quot;)" stroke-linecap="round" class="BottomRight"></path><path d="M1000 1922L1971 2893" stroke-width="6" stroke="url(&quot;#SvgjsLinearGradient6074&quot;)" stroke-linecap="round" class="BottomRight"></path><path d="M2727 87L1563 -1077" stroke-width="6" stroke="url(&quot;#SvgjsLinearGradient6074&quot;)" stroke-linecap="round" class="BottomRight"></path><path d="M2854 1523L2078 747" stroke-width="10" stroke="url(&quot;#SvgjsLinearGradient6074&quot;)" stroke-linecap="round" class="BottomRight"></path><path d="M2658 1695L3433 2470" stroke-width="8" stroke="url(&quot;#SvgjsLinearGradient6074&quot;)" stroke-linecap="round" class="BottomRight"></path><path d="M69 1183L-780 334" stroke-width="6" stroke="url(&quot;#SvgjsLinearGradient6075&quot;)" stroke-linecap="round" class="TopLeft"></path><path d="M1877 1214L1001 338" stroke-width="8" stroke="url(&quot;#SvgjsLinearGradient6076&quot;)" stroke-linecap="round" class="BottomRight"></path><path d="M2837 1747L1554 464" stroke-width="8" stroke="url(&quot;#SvgjsLinearGradient6074&quot;)" stroke-linecap="round" class="BottomRight"></path><path d="M3138 1701L1571 134" stroke-width="10" stroke="url(&quot;#SvgjsLinearGradient6073&quot;)" stroke-linecap="round" class="TopLeft"></path><path d="M2713 325L1332 -1056" stroke-width="8" stroke="url(&quot;#SvgjsLinearGradient6073&quot;)" stroke-linecap="round" class="TopLeft"></path><path d="M1310 962L2437 2089" stroke-width="6" stroke="url(&quot;#SvgjsLinearGradient6074&quot;)" stroke-linecap="round" class="BottomRight"></path><path d="M1690 174L503 -1013" stroke-width="6" stroke="url(&quot;#SvgjsLinearGradient6075&quot;)" stroke-linecap="round" class="TopLeft"></path><path d="M2292 763L3108 1579" stroke-width="8" stroke="url(&quot;#SvgjsLinearGradient6075&quot;)" stroke-linecap="round" class="TopLeft"></path><path d="M1134 759L-344 -719" stroke-width="6" stroke="url(&quot;#SvgjsLinearGradient6074&quot;)" stroke-linecap="round" class="BottomRight"></path><path d="M759 383L-471 -847" stroke-width="8" stroke="url(&quot;#SvgjsLinearGradient6074&quot;)" stroke-linecap="round" class="BottomRight"></path><path d="M2402 586L3847 2031" stroke-width="6" stroke="url(&quot;#SvgjsLinearGradient6076&quot;)" stroke-linecap="round" class="BottomRight"></path><path d="M1388 505L2283 1400" stroke-width="8" stroke="url(&quot;#SvgjsLinearGradient6074&quot;)" stroke-linecap="round" class="BottomRight"></path><path d="M3206 805L4149 1748" stroke-width="8" stroke="url(&quot;#SvgjsLinearGradient6076&quot;)" stroke-linecap="round" class="BottomRight"></path><path d="M2880 1749L3712 2581" stroke-width="6" stroke="url(&quot;#SvgjsLinearGradient6073&quot;)" stroke-linecap="round" class="TopLeft"></path><path d="M291 1354L1593 2656" stroke-width="6" stroke="url(&quot;#SvgjsLinearGradient6075&quot;)" stroke-linecap="round" class="TopLeft"></path><path d="M440 761L1273 1594" stroke-width="6" stroke="url(&quot;#SvgjsLinearGradient6076&quot;)" stroke-linecap="round" class="BottomRight"></path><path d="M3371 241L4937 1807" stroke-width="8" stroke="url(&quot;#SvgjsLinearGradient6074&quot;)" stroke-linecap="round" class="BottomRight"></path><path d="M1244 1585L2179 2520" stroke-width="10" stroke="url(&quot;#SvgjsLinearGradient6074&quot;)" stroke-linecap="round" class="BottomRight"></path><path d="M1474 692L2285 1503" stroke-width="6" stroke="url(&quot;#SvgjsLinearGradient6076&quot;)" stroke-linecap="round" class="BottomRight"></path><path d="M2076 105L3268 1297" stroke-width="6" stroke="url(&quot;#SvgjsLinearGradient6076&quot;)" stroke-linecap="round" class="BottomRight"></path><path d="M2127 2121L2767 2761" stroke-width="6" stroke="url(&quot;#SvgjsLinearGradient6073&quot;)" stroke-linecap="round" class="TopLeft"></path><path d="M2763 1850L4199 3286" stroke-width="10" stroke="url(&quot;#SvgjsLinearGradient6073&quot;)" stroke-linecap="round" class="TopLeft"></path><path d="M626 1964L-417 921" stroke-width="8" stroke="url(&quot;#SvgjsLinearGradient6075&quot;)" stroke-linecap="round" class="TopLeft"></path><path d="M3704 165L4287 748" stroke-width="6" stroke="url(&quot;#SvgjsLinearGradient6076&quot;)" stroke-linecap="round" class="BottomRight"></path><path d="M214 1475L1662 2923" stroke-width="10" stroke="url(&quot;#SvgjsLinearGradient6073&quot;)" stroke-linecap="round" class="TopLeft"></path><path d="M1061 592L1761 1292" stroke-width="10" stroke="url(&quot;#SvgjsLinearGradient6074&quot;)" stroke-linecap="round" class="BottomRight"></path><path d="M2969 594L3662 1287" stroke-width="10" stroke="url(&quot;#SvgjsLinearGradient6075&quot;)" stroke-linecap="round" class="TopLeft"></path><path d="M328 1625L1192 2489" stroke-width="10" stroke="url(&quot;#SvgjsLinearGradient6073&quot;)" stroke-linecap="round" class="TopLeft"></path><path d="M2816 1189L4230 2603" stroke-width="6" stroke="url(&quot;#SvgjsLinearGradient6073&quot;)" stroke-linecap="round" class="TopLeft"></path><path d="M2386 1065L900 -421" stroke-width="8" stroke="url(&quot;#SvgjsLinearGradient6075&quot;)" stroke-linecap="round" class="TopLeft"></path><path d="M647 529L1521 1403" stroke-width="10" stroke="url(&quot;#SvgjsLinearGradient6074&quot;)" stroke-linecap="round" class="BottomRight"></path><path d="M2098 1762L891 555" stroke-width="6" stroke="url(&quot;#SvgjsLinearGradient6074&quot;)" stroke-linecap="round" class="BottomRight"></path><path d="M2822 1810L3773 2761" stroke-width="10" stroke="url(&quot;#SvgjsLinearGradient6074&quot;)" stroke-linecap="round" class="BottomRight"></path><path d="M3002 205L1387 -1410" stroke-width="10" stroke="url(&quot;#SvgjsLinearGradient6073&quot;)" stroke-linecap="round" class="TopLeft"></path><path d="M1249 2074L503 1328" stroke-width="10" stroke="url(&quot;#SvgjsLinearGradient6074&quot;)" stroke-linecap="round" class="BottomRight"></path><path d="M721 1611L-231 659" stroke-width="10" stroke="url(&quot;#SvgjsLinearGradient6073&quot;)" stroke-linecap="round" class="TopLeft"></path><path d="M3232 199L4026 993" stroke-width="6" stroke="url(&quot;#SvgjsLinearGradient6076&quot;)" stroke-linecap="round" class="BottomRight"></path><path d="M103 2017L1167 3081" stroke-width="6" stroke="url(&quot;#SvgjsLinearGradient6073&quot;)" stroke-linecap="round" class="TopLeft"></path><path d="M130 83L1475 1428" stroke-width="10" stroke="url(&quot;#SvgjsLinearGradient6074&quot;)" stroke-linecap="round" class="BottomRight"></path><path d="M1356 488L2795 1927" stroke-width="8" stroke="url(&quot;#SvgjsLinearGradient6073&quot;)" stroke-linecap="round" class="TopLeft"></path><path d="M430 1182L-763 -11" stroke-width="8" stroke="url(&quot;#SvgjsLinearGradient6075&quot;)" stroke-linecap="round" class="TopLeft"></path><path d="M2955 1708L3925 2678" stroke-width="6" stroke="url(&quot;#SvgjsLinearGradient6076&quot;)" stroke-linecap="round" class="BottomRight"></path><path d="M2110 1563L2866 2319" stroke-width="8" stroke="url(&quot;#SvgjsLinearGradient6074&quot;)" stroke-linecap="round" class="BottomRight"></path><path d="M3559 259L4692 1392" stroke-width="10" stroke="url(&quot;#SvgjsLinearGradient6076&quot;)" stroke-linecap="round" class="BottomRight"></path><path d="M2993 1597L4009 2613" stroke-width="10" stroke="url(&quot;#SvgjsLinearGradient6075&quot;)" stroke-linecap="round" class="TopLeft"></path><path d="M1247 208L2720 1681" stroke-width="10" stroke="url(&quot;#SvgjsLinearGradient6076&quot;)" stroke-linecap="round" class="BottomRight"></path><path d="M2981 1954L3768 2741" stroke-width="6" stroke="url(&quot;#SvgjsLinearGradient6073&quot;)" stroke-linecap="round" class="TopLeft"></path><path d="M598 1615L1965 2982" stroke-width="8" stroke="url(&quot;#SvgjsLinearGradient6076&quot;)" stroke-linecap="round" class="BottomRight"></path><path d="M3610 399L4334 1123" stroke-width="10" stroke="url(&quot;#SvgjsLinearGradient6075&quot;)" stroke-linecap="round" class="TopLeft"></path><path d="M1999 1799L1266 1066" stroke-width="6" stroke="url(&quot;#SvgjsLinearGradient6075&quot;)" stroke-linecap="round" class="TopLeft"></path><path d="M3125 1631L3743 2249" stroke-width="6" stroke="url(&quot;#SvgjsLinearGradient6074&quot;)" stroke-linecap="round" class="BottomRight"></path><path d="M2755 2145L4157 3547" stroke-width="10" stroke="url(&quot;#SvgjsLinearGradient6075&quot;)" stroke-linecap="round" class="TopLeft"></path><path d="M1158 1173L599 614" stroke-width="6" stroke="url(&quot;#SvgjsLinearGradient6073&quot;)" stroke-linecap="round" class="TopLeft"></path><path d="M2996 635L1541 -820" stroke-width="6" stroke="url(&quot;#SvgjsLinearGradient6076&quot;)" stroke-linecap="round" class="BottomRight"></path><path d="M599 113L1715 1229" stroke-width="8" stroke="url(&quot;#SvgjsLinearGradient6076&quot;)" stroke-linecap="round" class="BottomRight"></path><path d="M3827 432L2781 -614" stroke-width="10" stroke="url(&quot;#SvgjsLinearGradient6073&quot;)" stroke-linecap="round" class="TopLeft"></path><path d="M1022 1078L386 442" stroke-width="6" stroke="url(&quot;#SvgjsLinearGradient6076&quot;)" stroke-linecap="round" class="BottomRight"></path><path d="M2892 944L1387 -561" stroke-width="10" stroke="url(&quot;#SvgjsLinearGradient6073&quot;)" stroke-linecap="round" class="TopLeft"></path><path d="M2605 836L1568 -201" stroke-width="8" stroke="url(&quot;#SvgjsLinearGradient6076&quot;)" stroke-linecap="round" class="BottomRight"></path><path d="M27 1457L901 2331" stroke-width="10" stroke="url(&quot;#SvgjsLinearGradient6075&quot;)" stroke-linecap="round" class="TopLeft"></path><path d="M1443 89L2361 1007" stroke-width="6" stroke="url(&quot;#SvgjsLinearGradient6073&quot;)" stroke-linecap="round" class="TopLeft"></path><path d="M198 86L1397 1285" stroke-width="10" stroke="url(&quot;#SvgjsLinearGradient6075&quot;)" stroke-linecap="round" class="TopLeft"></path><path d="M1539 1976L2993 3430" stroke-width="6" stroke="url(&quot;#SvgjsLinearGradient6075&quot;)" stroke-linecap="round" class="TopLeft"></path><path d="M2682 1518L1799 635" stroke-width="8" stroke="url(&quot;#SvgjsLinearGradient6074&quot;)" stroke-linecap="round" class="BottomRight"></path><path d="M1413 1051L2959 2597" stroke-width="10" stroke="url(&quot;#SvgjsLinearGradient6076&quot;)" stroke-linecap="round" class="BottomRight"></path><path d="M1053 5L72 -976" stroke-width="10" stroke="url(&quot;#SvgjsLinearGradient6076&quot;)" stroke-linecap="round" class="BottomRight"></path><path d="M2734 1418L4164 2848" stroke-width="8" stroke="url(&quot;#SvgjsLinearGradient6074&quot;)" stroke-linecap="round" class="BottomRight"></path><path d="M1004 1401L-429 -32" stroke-width="10" stroke="url(&quot;#SvgjsLinearGradient6076&quot;)" stroke-linecap="round" class="BottomRight"></path><path d="M3501 471L4454 1424" stroke-width="6" stroke="url(&quot;#SvgjsLinearGradient6075&quot;)" stroke-linecap="round" class="TopLeft"></path><path d="M2901 184L1366 -1351" stroke-width="10" stroke="url(&quot;#SvgjsLinearGradient6076&quot;)" stroke-linecap="round" class="BottomRight"></path><path d="M3661 2125L4345 2809" stroke-width="8" stroke="url(&quot;#SvgjsLinearGradient6074&quot;)" stroke-linecap="round" class="BottomRight"></path><path d="M684 1378L1467 2161" stroke-width="8" stroke="url(&quot;#SvgjsLinearGradient6076&quot;)" stroke-linecap="round" class="BottomRight"></path><path d="M1526 509L2779 1762" stroke-width="8" stroke="url(&quot;#SvgjsLinearGradient6076&quot;)" stroke-linecap="round" class="BottomRight"></path><path d="M3439 356L4666 1583" stroke-width="8" stroke="url(&quot;#SvgjsLinearGradient6075&quot;)" stroke-linecap="round" class="TopLeft"></path><path d="M1356 2087L2204 2935" stroke-width="10" stroke="url(&quot;#SvgjsLinearGradient6073&quot;)" stroke-linecap="round" class="TopLeft"></path><path d="M664 1786L-212 910" stroke-width="8" stroke="url(&quot;#SvgjsLinearGradient6074&quot;)" stroke-linecap="round" class="BottomRight"></path><path d="M3675 814L4959 2098" stroke-width="6" stroke="url(&quot;#SvgjsLinearGradient6075&quot;)" stroke-linecap="round" class="TopLeft"></path><path d="M3114 2148L2113 1147" stroke-width="6" stroke="url(&quot;#SvgjsLinearGradient6073&quot;)" stroke-linecap="round" class="TopLeft"></path><path d="M3612 571L4236 1195" stroke-width="8" stroke="url(&quot;#SvgjsLinearGradient6075&quot;)" stroke-linecap="round" class="TopLeft"></path><path d="M2368 2074L1586 1292" stroke-width="10" stroke="url(&quot;#SvgjsLinearGradient6073&quot;)" stroke-linecap="round" class="TopLeft"></path><path d="M1510 1539L2274 2303" stroke-width="10" stroke="url(&quot;#SvgjsLinearGradient6073&quot;)" stroke-linecap="round" class="TopLeft"></path><path d="M3439 999L3986 1546" stroke-width="6" stroke="url(&quot;#SvgjsLinearGradient6074&quot;)" stroke-linecap="round" class="BottomRight"></path><path d="M973 2116L16 1159" stroke-width="8" stroke="url(&quot;#SvgjsLinearGradient6074&quot;)" stroke-linecap="round" class="BottomRight"></path><path d="M2988 1511L4428 2951" stroke-width="10" stroke="url(&quot;#SvgjsLinearGradient6075&quot;)" stroke-linecap="round" class="TopLeft"></path><path d="M3780 1004L3150 374" stroke-width="10" stroke="url(&quot;#SvgjsLinearGradient6074&quot;)" stroke-linecap="round" class="BottomRight"></path><path d="M1198 788L1845 1435" stroke-width="6" stroke="url(&quot;#SvgjsLinearGradient6075&quot;)" stroke-linecap="round" class="TopLeft"></path><path d="M169 335L-1264 -1098" stroke-width="10" stroke="url(&quot;#SvgjsLinearGradient6075&quot;)" stroke-linecap="round" class="TopLeft"></path><path d="M384 1911L-301 1226" stroke-width="8" stroke="url(&quot;#SvgjsLinearGradient6074&quot;)" stroke-linecap="round" class="BottomRight"></path><path d="M1980 1519L3572 3111" stroke-width="10" stroke="url(&quot;#SvgjsLinearGradient6073&quot;)" stroke-linecap="round" class="TopLeft"></path><path d="M1570 2108L731 1269" stroke-width="10" stroke="url(&quot;#SvgjsLinearGradient6075&quot;)" stroke-linecap="round" class="TopLeft"></path><path d="M2731 1122L3650 2041" stroke-width="6" stroke="url(&quot;#SvgjsLinearGradient6074&quot;)" stroke-linecap="round" class="BottomRight"></path><path d="M2518 2002L1873 1357" stroke-width="6" stroke="url(&quot;#SvgjsLinearGradient6076&quot;)" stroke-linecap="round" class="BottomRight"></path><path d="M2082 2063L1357 1338" stroke-width="8" stroke="url(&quot;#SvgjsLinearGradient6075&quot;)" stroke-linecap="round" class="TopLeft"></path></g><defs><mask id="SvgjsMask6071"><rect width="3840" height="2160" fill="#ffffff"></rect></mask><linearGradient x1="89.06%" y1="119.44%" x2="10.94%" y2="-19.44%" gradientUnits="userSpaceOnUse" id="SvgjsLinearGradient6072"><stop stop-color="rgba(0, 48, 73, 1)" offset="0"></stop><stop stop-color="rgba(17, 17, 17, 1)" offset="1"></stop></linearGradient><linearGradient x1="100%" y1="100%" x2="0%" y2="0%" id="SvgjsLinearGradient6073"><stop stop-color="rgba(15, 55, 80, 0)" offset="0"></stop><stop stop-color="rgba(15, 55, 80, 1)" offset="1"></stop></linearGradient><linearGradient x1="0%" y1="0%" x2="100%" y2="100%" id="SvgjsLinearGradient6074"><stop stop-color="rgba(15, 55, 80, 0)" offset="0"></stop><stop stop-color="rgba(15, 55, 80, 1)" offset="1"></stop></linearGradient><linearGradient x1="100%" y1="100%" x2="0%" y2="0%" id="SvgjsLinearGradient6075"><stop stop-color="rgba(255, 159, 56, 0)" offset="0"></stop><stop stop-color="rgba(255, 159, 56, 1)" offset="1"></stop></linearGradient><linearGradient x1="0%" y1="0%" x2="100%" y2="100%" id="SvgjsLinearGradient6076"><stop stop-color="rgba(255, 159, 56, 0)" offset="0"></stop><stop stop-color="rgba(255, 159, 56, 1)" offset="1"></stop></linearGradient></defs></svg>